<svg xmlns="http://www.w3.org/2000/svg" viewBox="0 0 33 33" shape-rendering="crispEdges"><path fill="#000" d="M2,2h7v1h-7zM11,2h1v1h-1zM14,2h2v1h-2zM17,2h1v1h-1zM19,2h1v1h-1zM21,2h2v1h-2zM24,2h7v1h-7zM2,3h1v1h-1zM8,3h1v1h-1zM11,3h3v1h-3zM15,3h3v1h-3zM20,3h1v1h-1zM22,3h1v1h-1zM24,3h1v1h-1zM30,3h1v1h-1zM2,4h1v1h-1zM4,4h3v1h-3zM8,4h1v1h-1zM10,4h4v1h-4zM15,4h1v1h-1zM22,4h1v1h-1zM24,4h1v1h-1zM26,4h3v1h-3zM30,4h1v1h-1zM2,5h1v1h-1zM4,5h3v1h-3zM8,5h1v1h-1zM10,5h1v1h-1zM12,5h1v1h-1zM14,5h1v1h-1zM16,5h6v1h-6zM24,5h1v1h-1zM26,5h3v1h-3zM30,5h1v1h-1zM2,6h1v1h-1zM4,6h3v1h-3zM8,6h1v1h-1zM10,6h1v1h-1zM13,6h2v1h-2zM19,6h4v1h-4zM24,6h1v1h-1zM26,6h3v1h-3zM30,6h1v1h-1zM2,7h1v1h-1zM8,7h1v1h-1zM10,7h1v1h-1zM12,7h2v1h-2zM17,7h2v1h-2zM22,7h1v1h-1zM24,7h1v1h-1zM30,7h1v1h-1zM2,8h7v1h-7zM10,8h1v1h-1zM12,8h1v1h-1zM14,8h1v1h-1zM16,8h1v1h-1zM18,8h1v1h-1zM20,8h1v1h-1zM22,8h1v1h-1zM24,8h7v1h-7zM10,9h4v1h-4zM16,9h2v1h-2zM2,10h1v1h-1zM4,10h5v1h-5zM11,10h1v1h-1zM14,10h1v1h-1zM17,10h3v1h-3zM24,10h5v1h-5zM3,11h3v1h-3zM10,11h3v1h-3zM14,11h3v1h-3zM20,11h1v1h-1zM22,11h5v1h-5zM30,11h1v1h-1zM4,12h1v1h-1zM7,12h3v1h-3zM12,12h1v1h-1zM14,12h7v1h-7zM22,12h1v1h-1zM24,12h3v1h-3zM5,13h3v1h-3zM9,13h1v1h-1zM11,13h2v1h-2zM14,13h2v1h-2zM17,13h1v1h-1zM20,13h3v1h-3zM24,13h2v1h-2zM27,13h1v1h-1zM29,13h1v1h-1zM2,14h1v1h-1zM5,14h4v1h-4zM11,14h1v1h-1zM16,14h1v1h-1zM18,14h2v1h-2zM21,14h1v1h-1zM23,14h1v1h-1zM27,14h2v1h-2zM6,15h2v1h-2zM9,15h2v1h-2zM13,15h2v1h-2zM18,15h1v1h-1zM20,15h2v1h-2zM23,15h4v1h-4zM30,15h1v1h-1zM3,16h2v1h-2zM7,16h5v1h-5zM13,16h1v1h-1zM17,16h2v1h-2zM20,16h1v1h-1zM22,16h1v1h-1zM24,16h1v1h-1zM27,16h2v1h-2zM6,17h2v1h-2zM9,17h4v1h-4zM14,17h1v1h-1zM16,17h3v1h-3zM22,17h4v1h-4zM29,17h1v1h-1zM4,18h8v1h-8zM14,18h1v1h-1zM19,18h1v1h-1zM22,18h1v1h-1zM27,18h2v1h-2zM2,19h1v1h-1zM4,19h1v1h-1zM7,19h1v1h-1zM11,19h2v1h-2zM15,19h2v1h-2zM18,19h1v1h-1zM21,19h6v1h-6zM28,19h1v1h-1zM30,19h1v1h-1zM2,20h1v1h-1zM7,20h3v1h-3zM11,20h2v1h-2zM14,20h7v1h-7zM22,20h2v1h-2zM25,20h2v1h-2zM28,20h1v1h-1zM2,21h1v1h-1zM6,21h2v1h-2zM9,21h2v1h-2zM12,21h4v1h-4zM17,21h2v1h-2zM20,21h3v1h-3zM24,21h3v1h-3zM29,21h1v1h-1zM2,22h1v1h-1zM4,22h3v1h-3zM8,22h2v1h-2zM12,22h2v1h-2zM16,22h2v1h-2zM19,22h1v1h-1zM21,22h6v1h-6zM28,22h3v1h-3zM10,23h1v1h-1zM13,23h1v1h-1zM18,23h1v1h-1zM22,23h1v1h-1zM26,23h5v1h-5zM2,24h7v1h-7zM13,24h2v1h-2zM17,24h1v1h-1zM21,24h2v1h-2zM24,24h1v1h-1zM26,24h3v1h-3zM2,25h1v1h-1zM8,25h1v1h-1zM10,25h1v1h-1zM13,25h2v1h-2zM16,25h3v1h-3zM20,25h1v1h-1zM22,25h1v1h-1zM26,25h1v1h-1zM29,25h1v1h-1zM2,26h1v1h-1zM4,26h3v1h-3zM8,26h1v1h-1zM10,26h2v1h-2zM19,26h1v1h-1zM22,26h5v1h-5zM28,26h1v1h-1zM2,27h1v1h-1zM4,27h3v1h-3zM8,27h1v1h-1zM10,27h1v1h-1zM12,27h2v1h-2zM15,27h2v1h-2zM18,27h4v1h-4zM27,27h4v1h-4zM2,28h1v1h-1zM4,28h3v1h-3zM8,28h1v1h-1zM10,28h1v1h-1zM12,28h1v1h-1zM14,28h5v1h-5zM20,28h10v1h-10zM2,29h1v1h-1zM8,29h1v1h-1zM11,29h1v1h-1zM15,29h1v1h-1zM17,29h2v1h-2zM20,29h1v1h-1zM22,29h1v1h-1zM24,29h1v1h-1zM27,29h1v1h-1zM29,29h1v1h-1zM2,30h7v1h-7zM10,30h1v1h-1zM12,30h3v1h-3zM17,30h1v1h-1zM19,30h1v1h-1zM21,30h1v1h-1zM24,30h5v1h-5z"/></svg>
